<svg width="35" height="35" viewBox="0 0 35 35" fill="none" xmlns="http://www.w3.org/2000/svg">
<g clip-path="url(#clip0_60_2509)">
<path d="M26.7969 0H8.20312C3.67266 0 0 3.67266 0 8.20312V26.7969C0 31.3273 3.67266 35 8.20312 35H26.7969C31.3273 35 35 31.3273 35 26.7969V8.20312C35 3.67266 31.3273 0 26.7969 0Z" fill="#F4F2ED"/>
<path d="M5.69242 27.7592H10.0425V17.1946L3.82812 12.5338V25.8949C3.82812 26.9265 4.66402 27.7592 5.69242 27.7592Z" fill="#4285F4"/>
<path d="M24.9573 27.7592H29.3075C30.3391 27.7592 31.1718 26.9233 31.1718 25.8949V12.5337L24.9573 17.1946" fill="#34A853"/>
<path d="M24.9573 9.11571V17.1946L31.1718 12.5338V10.0477C31.1718 7.74223 28.54 6.42781 26.6974 7.81059" fill="#FBBC04"/>
<path d="M10.0427 17.1946V9.11587L17.5 14.7086L24.9574 9.1156V17.1944L17.5 22.7876" fill="#EA4335"/>
<path d="M3.82812 10.0479V12.5337L10.0425 17.1946V9.11589L8.30252 7.81077C6.45682 6.428 3.82812 7.74241 3.82812 10.0479Z" fill="#C5221F"/>
</g>
<defs>
<clipPath id="clip0_60_2509">
<rect width="35" height="35" fill="white"/>
</clipPath>
</defs>
</svg>
