<svg width="35" height="35" viewBox="0 0 35 35" fill="none" xmlns="http://www.w3.org/2000/svg">
<path d="M17.5 2.91669C14.6157 2.91669 11.7961 3.77198 9.3979 5.37442C6.99968 6.97686 5.1305 9.25446 4.02672 11.9192C2.92294 14.584 2.63415 17.5162 3.19685 20.3451C3.75955 23.174 5.14848 25.7725 7.18799 27.812C9.22751 29.8515 11.826 31.2404 14.6549 31.8031C17.4838 32.3658 20.416 32.077 23.0808 30.9733C25.7455 29.8695 28.0231 28.0003 29.6256 25.6021C31.228 23.2039 32.0833 20.3843 32.0833 17.5C32.0794 13.6335 30.5417 9.92638 27.8077 7.19231C25.0736 4.45824 21.3665 2.92055 17.5 2.91669ZM26.161 14.1648V15.1069C26.161 15.179 26.1466 15.2504 26.1186 15.3168C26.0906 15.3832 26.0495 15.4434 25.9978 15.4937C25.9462 15.544 25.885 15.5834 25.8178 15.6097C25.7507 15.6359 25.6789 15.6484 25.6068 15.6465C24.0671 15.5374 22.5942 14.9751 21.3733 14.0306V20.9256C21.3731 21.6888 21.2208 22.4442 20.9254 23.1478C20.6299 23.8514 20.1972 24.4891 19.6525 25.0236C19.1029 25.5714 18.4498 26.0043 17.7312 26.2973C17.0127 26.5902 16.243 26.7372 15.467 26.7298C13.9065 26.7271 12.4088 26.1148 11.2933 25.0236C10.5837 24.3081 10.0725 23.4202 9.81017 22.4473C9.54782 21.4743 9.54329 20.4498 9.79705 19.4746C10.0289 18.5384 10.497 17.6779 11.1577 16.9765C11.6503 16.3743 12.2714 15.8899 12.9753 15.5586C13.6793 15.2273 14.4484 15.0575 15.2264 15.0617H16.4223V17.5452C16.4228 17.6174 16.4079 17.6888 16.3787 17.7547C16.3494 17.8206 16.3065 17.8796 16.2527 17.9276C16.1988 17.9756 16.1354 18.0116 16.0666 18.0332C15.9977 18.0548 15.9251 18.0614 15.8535 18.0527C15.1592 17.8442 14.411 17.9134 13.7667 18.2457C13.1224 18.578 12.6323 19.1475 12.3997 19.8342C12.1671 20.5208 12.2101 21.2709 12.5198 21.9264C12.8295 22.5819 13.3816 23.0916 14.0598 23.3479C14.4535 23.574 14.8939 23.7067 15.346 23.7373C15.696 23.7519 16.046 23.7081 16.3785 23.6031C16.9338 23.4163 17.4169 23.0606 17.7602 22.5857C18.1035 22.1109 18.2899 21.5407 18.2933 20.9548V8.39127C18.2931 8.3224 18.3065 8.25416 18.3327 8.19047C18.359 8.12678 18.3975 8.0689 18.4461 8.02013C18.4948 7.97136 18.5525 7.93266 18.6162 7.90626C18.6798 7.87986 18.748 7.86627 18.8168 7.86627H20.8804C21.0146 7.86608 21.1437 7.91742 21.2411 8.00969C21.3385 8.10196 21.3968 8.22811 21.4039 8.3621C21.4794 9.0055 21.6839 9.62705 22.0051 10.1896C22.3263 10.7521 22.7577 11.2441 23.2735 11.6361C23.9707 12.1594 24.7988 12.4804 25.6666 12.5636C25.7966 12.5747 25.9182 12.6325 26.0088 12.7264C26.0994 12.8202 26.153 12.9437 26.1595 13.074L26.161 14.1648Z" fill="black"/>
</svg>
