<svg width="35" height="35" viewBox="0 0 35 35" fill="none" xmlns="http://www.w3.org/2000/svg">
<g clip-path="url(#clip0_60_2533)">
<path d="M0.741779 17.2905C0.740965 20.2312 1.50934 23.1026 2.97038 25.6334L0.602051 34.2806L9.45135 31.9603C11.899 33.2927 14.6413 33.9909 17.4281 33.9911H17.4354C26.6351 33.9911 34.1239 26.505 34.1278 17.3037C34.1296 12.845 32.3948 8.65232 29.2429 5.49797C26.0915 2.3439 21.9004 0.605978 17.4347 0.603943C8.23395 0.603943 0.745714 8.0896 0.741915 17.2905" fill="url(#paint0_linear_60_2533)"/>
<path d="M0.145765 17.2851C0.144816 20.3316 0.940727 23.3057 2.45387 25.9271L0.000610352 34.8843L9.16722 32.4808C11.6929 33.8579 14.5366 34.5839 17.4302 34.585H17.4377C26.9674 34.585 34.7252 26.8297 34.7293 17.299C34.7309 12.68 32.9337 8.33665 29.6692 5.0693C26.4043 1.80236 22.0632 0.00189922 17.4377 0C7.90627 0 0.149564 7.75426 0.145765 17.2851ZM5.60482 25.4757L5.26255 24.9323C3.82375 22.6446 3.06433 20.0009 3.06542 17.2862C3.0684 9.3644 9.51546 2.91938 17.4431 2.91938C21.2822 2.92101 24.8902 4.4176 27.6039 7.13295C30.3175 9.84857 31.8107 13.4585 31.8098 17.2979C31.8063 25.2197 25.3591 31.6655 17.4377 31.6655H17.432C14.8527 31.6641 12.3231 30.9715 10.117 29.6625L9.59197 29.3512L4.15232 30.7773L5.60482 25.4757Z" fill="url(#paint1_linear_60_2533)"/>
<path d="M13.1159 10.0588C12.7922 9.33943 12.4516 9.32491 12.1438 9.3123C11.8917 9.30145 11.6036 9.30226 11.3157 9.30226C11.0276 9.30226 10.5594 9.41065 10.1637 9.84273C9.76757 10.2752 8.65137 11.3203 8.65137 13.446C8.65137 15.5717 10.1996 17.626 10.4155 17.9146C10.6316 18.2026 13.4044 22.7043 17.796 24.4361C21.4458 25.8753 22.1885 25.5891 22.9806 25.5169C23.7729 25.445 25.537 24.472 25.8969 23.4632C26.257 22.4544 26.257 21.5897 26.1491 21.409C26.0411 21.229 25.7529 21.1209 25.3209 20.9049C24.8887 20.6888 22.7645 19.6435 22.3685 19.4993C21.9724 19.3553 21.6844 19.2834 21.3963 19.716C21.1081 20.1479 20.2807 21.1209 20.0285 21.409C19.7766 21.6978 19.5244 21.7338 19.0925 21.5177C18.6601 21.3009 17.2687 20.8452 15.6179 19.3734C14.3334 18.2282 13.4663 16.814 13.2143 16.3813C12.9622 15.9494 13.1873 15.7153 13.4039 15.5C13.598 15.3064 13.8361 14.9955 14.0524 14.7433C14.2678 14.4909 14.3397 14.3109 14.4838 14.0228C14.628 13.7344 14.5558 13.482 14.4479 13.2659C14.3397 13.0498 13.5001 10.9131 13.1159 10.0588Z" fill="white"/>
</g>
<defs>
<linearGradient id="paint0_linear_60_2533" x1="1676.89" y1="3368.27" x2="1676.89" y2="0.603943" gradientUnits="userSpaceOnUse">
<stop stop-color="#1FAF38"/>
<stop offset="1" stop-color="#60D669"/>
</linearGradient>
<linearGradient id="paint1_linear_60_2533" x1="1736.43" y1="3488.43" x2="1736.43" y2="0" gradientUnits="userSpaceOnUse">
<stop stop-color="#F9F9F9"/>
<stop offset="1" stop-color="white"/>
</linearGradient>
<clipPath id="clip0_60_2533">
<rect width="34.73" height="35" fill="white"/>
</clipPath>
</defs>
</svg>
